# xmcd
#
# Track frame offsets:
#	150
#	18437
#	31280
#	43622
#	59265
#	72300
#	88075
#	98567
#	115007
#	128040
#	138047
#	148892
#	161062
#	172905
#	186710
#	201445
#	213195
#	225735
#	240347
#	254562
#
# Disc length: 3590 seconds
#
# Revision: 2
# Processed by: cddbd v1.5.2PL0 Copyright (c) Steve Scherf et al.
# Submitted via: audiograbber 1.83.01
#
DISCID=1c0e0414
DTITLE=Various Artist - Classic Country - Sony Ladies - Volume 5
DYEAR=1900
DGENRE=Oldies
TTITLE0=Crystal Gayle - Half The Way
TTITLE1=Charly McClain - Sleeping With The Radio On
TTITLE2=Barbara Mandrell - The Midnight Oil
TTITLE3=Lacy J Dolton - Takin' It Easy
TTITLE4=Zella Lehr - Feedin' The Fire
TTITLE5=Libby Hurley - You Just Watch Me
TTITLE6=Linda Davis - All The Good Ones Are Taken
TTITLE7=Janey Frickie - It Ain't Easy Being Easy
TTITLE8=Louise Mandrell - Everlasting Love
TTITLE9=Jody Miller - Darling You Can Always
TTITLE10=Tanya Tucker - Would You Lay
TTITLE11=Tammy Wynette - Another Chance
TTITLE12=Sandy Posey - Bring Him Safely Home To Me
TTITLE13=Arlene Harden - Lovin' Man (Oh, Pretty Woman)
TTITLE14=June Carter Cash - A Good Man
TTITLE15=Judy Baily - The Bet Bedroom In Town
TTITLE16=Liz Anderson - Astrology
TTITLE17=Lori Yates - Scene Of The Crime
TTITLE18=Laney Smallwood - That -I Love You, Youlove Me Too- Love Song
TTITLE19=Dixiana - Waitin' For The Deal To Go Down
EXTD=
EXTT0=
EXTT1=
EXTT2=
EXTT3=
EXTT4=
EXTT5=
EXTT6=
EXTT7=
EXTT8=
EXTT9=
EXTT10=
EXTT11=
EXTT12=
EXTT13=
EXTT14=
EXTT15=
EXTT16=
EXTT17=
EXTT18=
EXTT19=
PLAYORDER=
